<!-- ============================================
     BOKASHI GUIDE - Illustrations SVG
     Bibliothèque d'illustrations handmade
     ============================================ -->

<!-- ============ SEAU BOKASHI STANDARD (VERT) ============ -->
<svg id="seau-bokashi-vert" viewBox="0 0 200 260" fill="none" xmlns="http://www.w3.org/2000/svg">
  <!-- Corps du seau -->
  <path d="M30 60 L40 220 C40 235 55 245 100 245 C145 245 160 235 160 220 L170 60 Z" fill="#7BA05B" stroke="#4A6741" stroke-width="3"/>
  <!-- Couvercle base -->
  <ellipse cx="100" cy="55" rx="75" ry="20" fill="#5B8A42" stroke="#4A6741" stroke-width="3"/>
  <!-- Couvercle top -->
  <ellipse cx="100" cy="50" rx="75" ry="20" fill="#7BA05B" stroke="#4A6741" stroke-width="3"/>
  <!-- Poignée -->
  <rect x="85" y="30" width="30" height="12" rx="6" fill="#4A6741"/>
  <!-- Bandes décoratives -->
  <path d="M35 100 Q100 115 165 100" stroke="#5B8A42" stroke-width="8" stroke-linecap="round"/>
  <path d="M38 160 Q100 175 162 160" stroke="#5B8A42" stroke-width="8" stroke-linecap="round"/>
  <!-- Robinet -->
  <rect x="150" y="200" width="25" height="12" rx="4" fill="#C67D4E"/>
  <circle cx="168" cy="206" r="6" fill="#8B6F47"/>
  <!-- Petites feuilles déco -->
  <path d="M60 130 Q70 120 80 130 Q70 140 60 130" fill="#9DC183"/>
  <path d="M120 180 Q130 170 140 180 Q130 190 120 180" fill="#9DC183"/>
</svg>

<!-- ============ SEAU BOKASHI TERRACOTTA ============ -->
<svg id="seau-bokashi-terracotta" viewBox="0 0 200 260" fill="none" xmlns="http://www.w3.org/2000/svg">
  <path d="M30 60 L40 220 C40 235 55 245 100 245 C145 245 160 235 160 220 L170 60 Z" fill="#C67D4E" stroke="#8B6F47" stroke-width="3"/>
  <ellipse cx="100" cy="55" rx="75" ry="20" fill="#A65D3A" stroke="#8B6F47" stroke-width="3"/>
  <ellipse cx="100" cy="50" rx="75" ry="20" fill="#C67D4E" stroke="#8B6F47" stroke-width="3"/>
  <rect x="85" y="30" width="30" height="12" rx="6" fill="#8B6F47"/>
  <path d="M35 100 Q100 115 165 100" stroke="#A65D3A" stroke-width="8" stroke-linecap="round"/>
  <path d="M38 160 Q100 175 162 160" stroke="#A65D3A" stroke-width="8" stroke-linecap="round"/>
  <rect x="150" y="200" width="25" height="12" rx="4" fill="#5C4A32"/>
  <circle cx="168" cy="206" r="6" fill="#3D3225"/>
</svg>

<!-- ============ SEAU BOKASHI FONCÉ ============ -->
<svg id="seau-bokashi-dark" viewBox="0 0 200 260" fill="none" xmlns="http://www.w3.org/2000/svg">
  <path d="M30 60 L40 220 C40 235 55 245 100 245 C145 245 160 235 160 220 L170 60 Z" fill="#4A6741" stroke="#2D3E28" stroke-width="3"/>
  <ellipse cx="100" cy="55" rx="75" ry="20" fill="#3D5A36" stroke="#2D3E28" stroke-width="3"/>
  <ellipse cx="100" cy="50" rx="75" ry="20" fill="#4A6741" stroke="#2D3E28" stroke-width="3"/>
  <rect x="85" y="30" width="30" height="12" rx="6" fill="#2D3E28"/>
  <path d="M35 100 Q100 115 165 100" stroke="#3D5A36" stroke-width="8" stroke-linecap="round"/>
  <path d="M38 160 Q100 175 162 160" stroke="#3D5A36" stroke-width="8" stroke-linecap="round"/>
  <rect x="150" y="200" width="25" height="12" rx="4" fill="#C67D4E"/>
  <circle cx="168" cy="206" r="6" fill="#8B6F47"/>
</svg>

<!-- ============ KIT DOUBLE SEAU ============ -->
<svg id="kit-double-seau" viewBox="0 0 240 260" fill="none" xmlns="http://www.w3.org/2000/svg">
  <!-- Seau gauche -->
  <path d="M10 60 L18 200 C18 212 28 220 55 220 C82 220 92 212 92 200 L100 60 Z" fill="#4A6741" stroke="#2D3E28" stroke-width="2.5"/>
  <ellipse cx="55" cy="58" rx="48" ry="14" fill="#3D5A36" stroke="#2D3E28" stroke-width="2.5"/>
  <ellipse cx="55" cy="54" rx="48" ry="14" fill="#4A6741" stroke="#2D3E28" stroke-width="2.5"/>
  <rect x="42" y="38" width="26" height="10" rx="5" fill="#2D3E28"/>
  <!-- Seau droit -->
  <path d="M140 60 L148 200 C148 212 158 220 185 220 C212 220 222 212 222 200 L230 60 Z" fill="#4A6741" stroke="#2D3E28" stroke-width="2.5"/>
  <ellipse cx="185" cy="58" rx="48" ry="14" fill="#3D5A36" stroke="#2D3E28" stroke-width="2.5"/>
  <ellipse cx="185" cy="54" rx="48" ry="14" fill="#4A6741" stroke="#2D3E28" stroke-width="2.5"/>
  <rect x="172" y="38" width="26" height="10" rx="5" fill="#2D3E28"/>
  <!-- Flèches échange -->
  <path d="M105 120 L135 120" stroke="#C67D4E" stroke-width="3" stroke-linecap="round"/>
  <path d="M128 113 L135 120 L128 127" stroke="#C67D4E" stroke-width="3" stroke-linecap="round" stroke-linejoin="round"/>
  <path d="M135 150 L105 150" stroke="#C67D4E" stroke-width="3" stroke-linecap="round"/>
  <path d="M112 143 L105 150 L112 157" stroke="#C67D4E" stroke-width="3" stroke-linecap="round" stroke-linejoin="round"/>
</svg>

<!-- ============ ACTIVATEUR / SON DE BOKASHI ============ -->
<svg id="activateur-bokashi" viewBox="0 0 180 200" fill="none" xmlns="http://www.w3.org/2000/svg">
  <!-- Sachet -->
  <path d="M30 50 L30 170 C30 180 40 185 90 185 C140 185 150 180 150 170 L150 50 Z" fill="#F3EEE4" stroke="#8B6F47" stroke-width="3"/>
  <!-- Pli du haut -->
  <path d="M30 50 Q90 30 150 50" stroke="#8B6F47" stroke-width="3"/>
  <path d="M40 50 Q90 35 140 50" fill="#E8DFD0"/>
  <!-- Contenu visible (grains) -->
  <circle cx="60" cy="140" r="6" fill="#C5D9B7"/>
  <circle cx="80" cy="150" r="5" fill="#D4C5A9"/>
  <circle cx="100" cy="145" r="7" fill="#C5D9B7"/>
  <circle cx="120" cy="155" r="5" fill="#D4C5A9"/>
  <circle cx="70" cy="160" r="4" fill="#C5D9B7"/>
  <circle cx="110" cy="165" r="6" fill="#D4C5A9"/>
  <!-- Étiquette -->
  <rect x="50" y="70" width="80" height="50" rx="4" fill="#7BA05B"/>
  <text x="90" y="100" text-anchor="middle" font-family="Georgia" font-size="14" fill="white">EM</text>
  <!-- Micro-organismes stylisés -->
  <circle cx="65" cy="90" r="3" fill="#9DC183"/>
  <circle cx="115" cy="85" r="4" fill="#9DC183"/>
  <circle cx="75" cy="108" r="2" fill="#9DC183"/>
</svg>

<!-- ============ JUS DE BOKASHI ============ -->
<svg id="jus-bokashi" viewBox="0 0 160 200" fill="none" xmlns="http://www.w3.org/2000/svg">
  <!-- Bouteille -->
  <path d="M55 50 L55 30 C55 25 60 20 80 20 C100 20 105 25 105 30 L105 50" stroke="#4A6741" stroke-width="3" fill="none"/>
  <path d="M45 50 L40 180 C40 190 55 195 80 195 C105 195 120 190 120 180 L115 50 Z" fill="#8B6F47" stroke="#5C4A32" stroke-width="3"/>
  <!-- Liquide -->
  <path d="M48 70 L44 175 C44 183 57 188 80 188 C103 188 116 183 116 175 L112 70 Z" fill="#C67D4E" opacity="0.6"/>
  <!-- Bulles -->
  <circle cx="65" cy="120" r="4" fill="#E8A878" opacity="0.5"/>
  <circle cx="90" cy="100" r="6" fill="#E8A878" opacity="0.5"/>
  <circle cx="75" cy="150" r="3" fill="#E8A878" opacity="0.5"/>
  <circle cx="100" cy="140" r="5" fill="#E8A878" opacity="0.5"/>
  <!-- Étiquette -->
  <rect x="52" y="85" width="56" height="35" rx="3" fill="#F3EEE4" stroke="#8B6F47" stroke-width="1"/>
  <text x="80" y="107" text-anchor="middle" font-family="Georgia" font-size="10" fill="#4A6741">JUS</text>
</svg>

<!-- ============ LOMBRICOMPOSTEUR ============ -->
<svg id="lombricomposteur" viewBox="0 0 200 240" fill="none" xmlns="http://www.w3.org/2000/svg">
  <!-- Bac inférieur -->
  <rect x="30" y="180" width="140" height="40" rx="5" fill="#5C4A32" stroke="#3D3225" stroke-width="2"/>
  <!-- Bac milieu -->
  <rect x="30" y="130" width="140" height="50" rx="5" fill="#8B6F47" stroke="#5C4A32" stroke-width="2"/>
  <!-- Bac supérieur -->
  <rect x="30" y="80" width="140" height="50" rx="5" fill="#A68B6A" stroke="#8B6F47" stroke-width="2"/>
  <!-- Couvercle -->
  <rect x="25" y="60" width="150" height="20" rx="5" fill="#5C4A32" stroke="#3D3225" stroke-width="2"/>
  <!-- Vers stylisés -->
  <path d="M60 100 Q70 95 80 100 Q90 105 100 100" stroke="#C67D4E" stroke-width="3" stroke-linecap="round"/>
  <path d="M110 150 Q120 145 130 150 Q140 155 150 150" stroke="#C67D4E" stroke-width="3" stroke-linecap="round"/>
  <path d="M50 160 Q60 155 70 160" stroke="#C67D4E" stroke-width="2" stroke-linecap="round"/>
  <!-- Robinet -->
  <rect x="150" y="195" width="20" height="8" rx="2" fill="#C67D4E"/>
</svg>

<!-- ============ PLANTE / JARDIN ============ -->
<svg id="plante-jardin" viewBox="0 0 160 200" fill="none" xmlns="http://www.w3.org/2000/svg">
  <!-- Pot -->
  <path d="M35 120 L45 190 C45 195 60 198 80 198 C100 198 115 195 115 190 L125 120 Z" fill="#C67D4E" stroke="#8B6F47" stroke-width="2"/>
  <ellipse cx="80" cy="120" rx="47" ry="12" fill="#A65D3A" stroke="#8B6F47" stroke-width="2"/>
  <!-- Terre -->
  <ellipse cx="80" cy="120" rx="40" ry="8" fill="#5C4A32"/>
  <!-- Tige -->
  <path d="M80 115 L80 50" stroke="#4A6741" stroke-width="4" stroke-linecap="round"/>
  <!-- Feuilles -->
  <path d="M80 90 Q60 70 50 80 Q60 95 80 90" fill="#7BA05B"/>
  <path d="M80 90 Q100 70 110 80 Q100 95 80 90" fill="#7BA05B"/>
  <path d="M80 60 Q55 35 45 50 Q60 70 80 60" fill="#5B8A42"/>
  <path d="M80 60 Q105 35 115 50 Q100 70 80 60" fill="#5B8A42"/>
  <path d="M80 40 Q70 15 80 5 Q90 15 80 40" fill="#7BA05B"/>
  <!-- Petites racines visibles -->
  <path d="M65 125 Q60 140 55 150" stroke="#8B6F47" stroke-width="2" stroke-linecap="round"/>
  <path d="M95 125 Q100 140 105 150" stroke="#8B6F47" stroke-width="2" stroke-linecap="round"/>
</svg>

<!-- ============ DÉCHETS CUISINE ============ -->
<svg id="dechets-cuisine" viewBox="0 0 200 160" fill="none" xmlns="http://www.w3.org/2000/svg">
  <!-- Épluchure banane -->
  <path d="M20 80 Q30 60 50 70 Q70 50 90 70 Q80 90 60 85 Q40 95 20 80" fill="#F4D03F" stroke="#D4AC0D" stroke-width="2"/>
  <!-- Trognon pomme -->
  <ellipse cx="130" cy="90" rx="25" ry="35" fill="#C5D9B7"/>
  <path d="M130 55 Q140 40 135 30" stroke="#5C4A32" stroke-width="2"/>
  <ellipse cx="130" cy="90" rx="8" ry="12" fill="#F3EEE4"/>
  <!-- Marc de café -->
  <ellipse cx="170" cy="120" rx="25" ry="15" fill="#5C4A32"/>
  <ellipse cx="170" cy="117" rx="20" ry="10" fill="#8B6F47"/>
  <!-- Coquille œuf -->
  <path d="M50 110 Q55 90 70 95 Q85 90 90 110 Q70 130 50 110" fill="#F3EEE4" stroke="#D4C5A9" stroke-width="1"/>
  <path d="M65 105 L68 95 L75 108" stroke="#D4C5A9" stroke-width="1"/>
  <!-- Feuilles salade -->
  <path d="M100 130 Q120 110 140 130 Q120 145 100 130" fill="#7BA05B" opacity="0.8"/>
  <path d="M90 140 Q105 125 120 140 Q105 150 90 140" fill="#5B8A42" opacity="0.8"/>
</svg>

<!-- ============ ICÔNE CHECK ============ -->
<svg id="icon-check" viewBox="0 0 24 24" fill="none" xmlns="http://www.w3.org/2000/svg">
  <polyline points="20 6 9 17 4 12" stroke="currentColor" stroke-width="2.5" stroke-linecap="round" stroke-linejoin="round"/>
</svg>

<!-- ============ ICÔNE FLÈCHE ============ -->
<svg id="icon-arrow" viewBox="0 0 24 24" fill="none" xmlns="http://www.w3.org/2000/svg">
  <path d="M5 12h14M12 5l7 7-7 7" stroke="currentColor" stroke-width="2" stroke-linecap="round" stroke-linejoin="round"/>
</svg>

<!-- ============ ICÔNE FEUILLE ============ -->
<svg id="icon-leaf" viewBox="0 0 24 24" fill="none" xmlns="http://www.w3.org/2000/svg">
  <path d="M12 22c-4-2-8-6-8-12 0-4 4-8 8-8s8 4 8 8c0 6-4 10-8 12z" fill="currentColor" opacity="0.2"/>
  <path d="M12 22V10M8 14l4-4 4 4" stroke="currentColor" stroke-width="2" stroke-linecap="round" stroke-linejoin="round"/>
</svg>
